<?xml version="1.0" encoding="UTF-8"?>
<!DOCTYPE svg PUBLIC "-//W3C//DTD SVG 1.1//EN" "http://www.w3.org/Graphics/SVG/1.1/DTD/svg11.dtd">
<svg xmlns="http://www.w3.org/2000/svg" xmlns:xlink="http://www.w3.org/1999/xlink" version="1.1" width="480px" height="80px" viewBox="0 0 240 40">
  <style>path { stroke: black; stroke-width: 5px; stroke-linecap: round; }</style>
  <path d="M 20 10 L 50 10"></path>
  <path d="M 10 20 L 60 20"></path>
  <path d="M 30 30 L 40 30"></path>
  <path d="M 70 30 L 80 30"></path>
  <path d="M 90 10 L 120 10"></path>
  <path d="M 100 20 L 110 20"></path>
  <path d="M 150 10 L 160 10"></path>
  <path d="M 130 20 L 170 20"></path>
  <path d="M 140 30 L 180 30"></path>
  <path d="M 200 10 L 220 10"></path>
  <path d="M 210 20 L 230 20"></path>
  <path d="M 190 30 L 220 30"></path>
  <path d="M215 10 A5 5 0 0 1 225 10 5 5 0 0 1 215 10z" style="stroke:red;fill:none;stroke-width:2"/>
</svg>
