<?xml version="1.0" encoding="UTF-8"?>
<svg xmlns="http://www.w3.org/2000/svg" xmlns:xlink="http://www.w3.org/1999/xlink" width="300px" height="227px" viewBox="0 0 300 227" version="1.1">
<g id="surface1">
<path style=" stroke:none;fill-rule:nonzero;fill:rgb(0%,0%,0%);fill-opacity:0.701961;" d="M 38.296875 223.804688 C 34.011719 223.445312 36.296875 218.9375 35.777344 217.082031 C 35.507812 216.117188 35.535156 215.675781 35.539062 215.273438 C 35.554688 212.039062 34.050781 213.109375 33.246094 206.25 C 32.945312 203.6875 33.695312 204.949219 33.355469 201.363281 C 33.039062 198.042969 32.117188 202.054688 32.105469 190.425781 C 31.941406 189.824219 31.605469 186.742188 31.566406 186.664062 C 31.238281 185.972656 30.8125 186.058594 30.683594 184.855469 C 30.46875 182.824219 30.179688 183.679688 30.144531 180.730469 C 30.101562 177.441406 30.949219 173.761719 30.949219 171.96875 C 30.949219 171.960938 30.203125 167.980469 30.148438 166.175781 C 30.136719 165.851562 30.113281 165.507812 30.089844 165.40625 C 30.039062 165.167969 29.09375 163.300781 28.957031 163.171875 C 28.636719 162.875 28.242188 163.296875 27.765625 163.714844 C 27.445312 163.996094 22.347656 168.355469 19.167969 169.988281 C 17.351562 170.921875 18.34375 170.722656 16.53125 172.695312 C 15.640625 173.664062 16.230469 173.707031 16.039062 174.179688 C 15.570312 175.359375 14.300781 175.683594 14.707031 177.261719 C 14.917969 178.074219 19.234375 191.503906 18.46875 193.386719 C 18.023438 194.484375 18.691406 193.84375 19.210938 196.914062 C 19.546875 198.886719 20.136719 198.957031 20.136719 200.632812 C 20.136719 203.941406 21.960938 205.941406 21.679688 207.414062 C 21.472656 208.488281 22.320312 209.695312 22.226562 211.164062 C 22.136719 212.5625 20.59375 213.164062 20.050781 213.628906 C 18.347656 215.074219 17.292969 220.085938 15.214844 221.457031 C 13.441406 222.625 9.460938 222.59375 8.519531 220.683594 C 7.921875 219.46875 8.617188 217.914062 9.824219 217.257812 C 12.351562 215.886719 13.042969 210.992188 13.609375 208.796875 C 13.832031 207.941406 13.667969 207.800781 13.304688 207.421875 C 12.691406 206.78125 11.503906 204.363281 11.878906 203.273438 C 12.097656 202.648438 11.859375 202.253906 11.386719 201.886719 C 10.667969 201.332031 10.328125 200.832031 9.816406 198.339844 C 9.324219 195.929688 11.183594 199.136719 7.167969 190.980469 C 5.832031 188.265625 4.296875 184.824219 3.4375 181.03125 C 3.253906 180.226562 2.734375 179.613281 2.734375 179.613281 C 2.691406 179.265625 2.792969 178.671875 2.628906 178.328125 C 2.285156 177.589844 1.933594 177.929688 1.882812 176.492188 C 1.847656 175.621094 1.585938 173.253906 1.585938 173.25 C 2.488281 166.429688 11.921875 151.746094 12.152344 150.644531 C 12.328125 149.789062 12.558594 149.554688 13.859375 148.109375 C 14.714844 147.15625 14.722656 146.519531 15.585938 146.070312 C 16.535156 145.578125 16.140625 145.230469 17.265625 143.960938 C 21.441406 139.242188 18.414062 140.941406 21.316406 137.386719 C 23.4375 134.789062 22.355469 111.058594 21.230469 108.800781 C 20.511719 107.363281 16.605469 111.492188 15.421875 104.609375 C 15.261719 103.675781 15.238281 103.65625 13.972656 102.902344 C 11.832031 101.625 1.902344 94.667969 1.707031 92.175781 C 1.53125 89.867188 2.660156 81.894531 4.867188 76.152344 C 7.867188 68.359375 8.257812 67.058594 7.757812 64.804688 C 7.28125 62.660156 7.984375 59.0625 8.199219 58.875 C 8.824219 58.328125 9.535156 59.5625 9.746094 59 C 10.195312 57.8125 8.152344 55.683594 9.695312 55.679688 C 11.160156 55.679688 11.355469 58.953125 11.777344 57.667969 C 11.945312 57.164062 11.351562 52.328125 11.578125 51.703125 C 11.792969 51.113281 12.65625 50.992188 12.878906 52.539062 C 13.574219 57.390625 13.289062 57.933594 13.738281 57.972656 C 14.589844 58.046875 14.382812 52.929688 14.789062 52.066406 C 14.941406 51.746094 15.617188 51.554688 15.832031 52.527344 C 16.296875 54.648438 15.300781 61.808594 16.207031 59.066406 C 16.703125 57.558594 18.019531 56.636719 17.667969 58.132812 C 17.484375 58.917969 17.503906 59.140625 17.519531 60.277344 C 16.390625 63.675781 16.859375 63.179688 15.882812 64 C 12.816406 66.578125 12.585938 68.128906 12.523438 69.488281 C 12.460938 70.800781 12.410156 70.171875 11.332031 74.726562 C 9.878906 80.863281 10.84375 82.671875 9.972656 87.84375 C 9.488281 90.734375 9.863281 89.492188 14.960938 92.367188 C 16.484375 93.226562 16.6875 93.210938 17.363281 93.257812 C 18.523438 93.332031 18.6875 93.71875 19.582031 93.4375 C 20.113281 93.265625 21.714844 93.265625 22.453125 93.523438 C 24.472656 92.808594 25.648438 93.953125 27.121094 93.441406 C 27.519531 93.304688 28.070312 93.152344 28.070312 92.808594 C 28.070312 92.492188 27.246094 90.140625 26.699219 89.519531 C 25.316406 87.933594 25.214844 85.792969 24.25 85.050781 C 23.296875 84.324219 22.132812 78.65625 22.105469 77.882812 C 22.035156 75.972656 22.46875 75.996094 23 74.4375 C 23.597656 72.675781 23.859375 73.578125 24.308594 72.109375 C 24.582031 71.222656 25.296875 70.476562 25.613281 70.335938 C 26.300781 70.042969 25.730469 69.667969 26.515625 69.558594 C 27.800781 69.378906 28.308594 68.5625 29.25 68.363281 C 30.109375 68.179688 30.699219 68.660156 31.929688 68.863281 C 34.101562 69.222656 34.597656 70.632812 36.980469 71.371094 C 37.882812 71.652344 38.582031 72.386719 38.367188 73.503906 C 37.972656 75.585938 39.9375 79.507812 38.972656 81.019531 C 38.238281 82.167969 38.574219 83.324219 38.1875 85.292969 C 38.023438 86.117188 37.644531 86.425781 37.851562 87.292969 C 38.054688 88.152344 38.214844 88.949219 41.167969 85.886719 C 42.191406 84.824219 42.304688 84.917969 42.851562 84.222656 C 43.472656 83.429688 43.96875 83.199219 44.34375 82.992188 C 45.757812 82.210938 46.445312 78.988281 48.988281 76.386719 C 50.789062 74.539062 50.179688 73.539062 50.589844 68.296875 C 51.039062 62.554688 52.234375 62.203125 52.222656 53.988281 C 52.21875 50.707031 51.984375 52.582031 49.351562 49.035156 C 47.914062 47.09375 47.007812 41.433594 47.722656 41.199219 C 48.324219 41.003906 49.167969 42.226562 49.484375 43.445312 C 50.132812 45.921875 50.46875 42.652344 50.144531 40.195312 C 50.097656 39.835938 49.976562 35.609375 50.269531 34.929688 C 50.484375 34.421875 50.992188 34.398438 51.269531 34.851562 C 51.269531 34.851562 51.960938 40.726562 52.050781 41.140625 C 52.148438 41.585938 52.898438 42.257812 52.367188 38.964844 C 52.167969 37.710938 52.210938 34.386719 52.257812 34.066406 C 52.464844 32.644531 53.492188 33.003906 53.660156 33.523438 C 53.855469 34.140625 53.730469 36.726562 54.050781 37.214844 C 54.753906 38.289062 53.636719 32.625 55.277344 33.816406 C 56.394531 34.628906 55.480469 42.484375 56.730469 41.890625 C 57.273438 41.632812 57.9375 36.851562 58.207031 36.445312 C 58.472656 36.058594 59.125 35.859375 59.125 37.734375 C 59.125 39.070312 58.710938 41.132812 58.585938 42.386719 C 58.414062 44.066406 58.875 46.9375 58.652344 48.425781 C 58.363281 50.308594 58.140625 49.546875 57.914062 52.632812 C 57.667969 55.917969 59.832031 71.472656 56.867188 77.457031 C 55.976562 79.25 55.5625 83.933594 54.285156 88.609375 C 53.429688 91.746094 53.207031 91.417969 52.902344 92.328125 C 51.105469 97.683594 53.605469 98.699219 52.597656 106.800781 C 52.292969 109.25 52.945312 112.4375 52.273438 115.855469 C 51.945312 117.542969 52.570312 118.710938 53.167969 123.585938 C 54.789062 136.847656 54.320312 135.464844 55.542969 139.070312 C 55.492188 140.285156 55.449219 140.480469 54.164062 141.15625 C 51.605469 142.5 54.640625 141.515625 52.582031 149.101562 C 51.726562 152.25 53.425781 151.785156 51.664062 154.136719 C 50.253906 156.019531 50.957031 156.660156 50.132812 157.84375 C 47.144531 162.125 49.4375 162.714844 47.339844 164.390625 C 46.203125 165.296875 45.65625 169.96875 44.816406 171.929688 C 42.621094 177.042969 44.5 177.484375 43.542969 179.898438 C 43.152344 180.882812 43.433594 181.195312 43.007812 182.140625 C 42.863281 182.460938 42.675781 182.902344 42.855469 183.761719 C 43.046875 184.683594 42.695312 185.886719 43.074219 187.488281 C 44.273438 192.558594 44.09375 194.589844 43.578125 197.339844 C 43.015625 200.347656 42.902344 199.953125 43.097656 200.785156 C 43.277344 201.546875 43.738281 211.015625 42.316406 213.90625 C 42.316406 214.226562 42.292969 214.835938 42.570312 215.3125 C 42.957031 215.976562 49.917969 222.375 41.375 223.742188 C 40.984375 223.804688 38.824219 223.847656 38.296875 223.804688 L 371.65625 658.703125 Z M 38.296875 223.804688 "/>
<path style=" stroke:none;fill-rule:nonzero;fill:rgb(0%,0%,0%);fill-opacity:0.701961;" d="M 98.9375 198.226562 C 100.359375 191.03125 100.414062 181.1875 96.890625 175.328125 C 93.824219 170.226562 92.128906 158.1875 92.292969 157.867188 C 92.636719 157.195312 96.125 156.742188 96.125 156.046875 C 96.125 156.046875 94.421875 150.640625 92.746094 144.449219 C 90.273438 135.292969 89.585938 133.78125 87.375 130.921875 C 85.714844 128.777344 84.460938 125.507812 83.351562 124.664062 C 82.324219 123.886719 82.636719 123.457031 81.351562 122.019531 C 80.765625 121.363281 80.46875 120.160156 80.386719 119.289062 C 80.246094 117.839844 79.757812 118.359375 79.804688 117.242188 C 79.847656 116.226562 80.203125 116.53125 80.203125 115.386719 C 80.203125 114.421875 80.121094 115.066406 79.832031 113.289062 C 80.128906 112.425781 80.269531 112.058594 80.941406 111.429688 C 82.667969 109.808594 84.890625 104.828125 84.980469 104.507812 C 85.328125 103.28125 85.367188 104.710938 85.683594 104.445312 C 85.910156 104.257812 86.234375 102.507812 86.367188 102.242188 C 86.53125 101.921875 86.722656 102.175781 86.804688 101.523438 C 86.855469 101.117188 86.921875 100.789062 87.417969 100.617188 C 92.734375 98.746094 93.460938 92.921875 94.695312 91.457031 C 96.28125 89.574219 96.421875 84.3125 96.132812 81.9375 C 95.242188 74.585938 93.457031 71.371094 94.4375 64.816406 C 94.664062 63.28125 94.644531 63.195312 94.648438 60.984375 C 93.933594 58.992188 93.472656 59.957031 92.339844 59.101562 C 92.070312 58.894531 91.832031 58.828125 91.371094 58.828125 C 90.332031 58.828125 91.289062 57.894531 90.464844 57.648438 C 89.796875 57.445312 89.542969 58.484375 88.421875 57.921875 C 87.65625 57.539062 87.148438 58.148438 86.992188 58.46875 C 86.835938 58.789062 86.898438 59.476562 86.976562 60.328125 C 87.148438 62.207031 87.304688 61.351562 87.925781 63.5 C 88.527344 65.570312 89.457031 66.101562 89.613281 67.0625 C 89.667969 67.382812 90.28125 76.929688 89.933594 78.699219 C 89.148438 82.6875 92.027344 87.585938 88.230469 88.925781 C 87.574219 89.15625 88.046875 88.664062 87.519531 85.128906 C 86.832031 80.554688 88.074219 78.765625 85.179688 75.785156 C 83.519531 74.070312 85.644531 71.855469 80.777344 68.605469 C 77.398438 66.351562 71.359375 67.972656 70 73.40625 C 69.5625 75.15625 70 75.976562 69.445312 77.605469 C 68.683594 79.839844 68.992188 83.023438 70.105469 85.078125 C 73.335938 91.03125 61.394531 80.5 60.429688 76.914062 C 60.382812 76.746094 60.523438 73.421875 60.429688 72.1875 C 60.253906 69.964844 60.746094 69.585938 61.015625 68.257812 C 61.378906 66.507812 63.847656 66.957031 65.378906 66.203125 C 67.132812 65.335938 66.195312 64.265625 66.203125 63.410156 C 66.207031 62.839844 66.203125 62.671875 65.625 62.386719 C 64.746094 61.953125 65.179688 61.628906 64.265625 61.164062 C 63.554688 60.804688 63.511719 60.226562 61.964844 59.964844 C 60.304688 59.6875 60.421875 61.367188 59.605469 62.277344 C 58.28125 63.746094 59.128906 63.566406 57.765625 65.679688 C 51.011719 76.15625 53.976562 77.632812 56.496094 83.132812 C 58.574219 87.664062 62.394531 92.824219 64.1875 93.910156 C 64.65625 94.195312 64.898438 94.398438 64.242188 95.183594 C 55.207031 105.992188 59.183594 107.1875 59.890625 111.539062 C 59.898438 111.59375 56.082031 146.878906 55.5 150.917969 C 54.109375 160.652344 54.425781 160.039062 55.167969 160.222656 C 56.652344 160.597656 61.46875 159.710938 62.230469 160.351562 C 62.664062 160.71875 62.792969 170.304688 62.867188 170.945312 C 63.382812 175.292969 61.96875 177.117188 61.386719 182.511719 C 60.945312 186.636719 60.410156 186.625 60.835938 199.136719 C 61.023438 204.597656 60.3125 215.828125 59.519531 217.472656 C 59.03125 218.488281 58.105469 219.128906 57.898438 220.003906 C 56.871094 224.375 64.824219 224.546875 65.375 221.269531 C 65.480469 220.621094 65.300781 219.226562 65.484375 219.105469 C 65.765625 218.917969 65.773438 219.570312 65.988281 219.816406 C 66.113281 219.964844 66.378906 219.894531 66.457031 219.691406 C 66.488281 219.609375 66.511719 219.113281 66.527344 217.972656 C 66.621094 212.320312 68.683594 212.632812 67.726562 209.597656 C 67.304688 208.269531 66.847656 207.363281 66.261719 206.691406 C 64.707031 204.921875 70.472656 193.472656 70.796875 184.59375 C 71.074219 177.101562 70.765625 178.476562 72.195312 175.011719 C 73.902344 170.863281 74.015625 160.972656 76.183594 160.101562 C 77.96875 159.402344 77.496094 161.828125 82.671875 168.941406 C 83.226562 169.703125 85.074219 173.066406 85.480469 174.230469 C 86.457031 177.007812 88.71875 177.523438 88.996094 179.042969 C 89.429688 181.421875 90.667969 184.707031 90.753906 187.179688 C 90.953125 192.949219 94.632812 196.367188 92.671875 213.570312 C 92.398438 215.988281 91.667969 216.730469 90.964844 218.988281 C 90.128906 221.664062 91.917969 223.175781 94.402344 223.527344 C 94.871094 223.589844 95.621094 223.578125 96.046875 223.492188 C 100.746094 222.578125 97.0625 215.820312 99.253906 212.394531 C 100.152344 210.992188 99.710938 210.160156 99.359375 209.28125 Z M 340.582031 286.089844 C 341.230469 285.503906 341.324219 289.8125 341.003906 290.132812 C 339.992188 291.148438 339.792969 286.804688 340.582031 286.089844 Z M 340.582031 286.089844 "/>
<path style=" stroke:none;fill-rule:nonzero;fill:rgb(0%,0%,0%);fill-opacity:0.701961;" d="M 134.042969 223.804688 C 127.882812 223.191406 130.777344 216.71875 131.019531 214.609375 C 131.171875 213.320312 130.527344 207.746094 130.699219 206.597656 C 131.289062 202.644531 128.597656 200.976562 130.011719 199.234375 C 130.867188 198.171875 129.789062 197.472656 129.953125 193.496094 C 130.167969 188.308594 128.871094 188.695312 130.113281 180.023438 C 130.386719 178.089844 130.304688 177.949219 130.222656 177.621094 C 129.878906 176.261719 130.53125 175.296875 129.90625 174.894531 C 129.207031 174.445312 129.769531 174.4375 129.308594 172.851562 C 128.878906 171.386719 128.292969 171.664062 128.410156 170.917969 C 128.582031 169.804688 127.414062 167.039062 126.988281 166.160156 C 124.589844 161.179688 125.628906 163.703125 121.984375 158.726562 C 119.417969 155.222656 120.046875 155.445312 118.886719 155.421875 C 116.851562 155.382812 116.4375 160.835938 115.933594 163.617188 C 114.78125 169.972656 116.207031 166.839844 115.554688 171.417969 C 115.46875 172.046875 115.332031 172.582031 115.4375 172.867188 C 115.582031 173.246094 115.9375 173.3125 115.585938 173.949219 C 115.136719 174.765625 115.472656 175.535156 115.132812 177.847656 C 114.953125 179.054688 115.53125 178.859375 115.296875 179.6875 C 114.890625 181.144531 115.59375 183.089844 115.683594 183.496094 C 116.984375 189.386719 118.3125 207.042969 118.308594 207.363281 C 118.28125 208.679688 118.246094 208.613281 118.722656 209.617188 C 120.085938 212.46875 118.199219 210.910156 118.191406 215.589844 C 118.183594 219.34375 117.652344 218.425781 112.730469 220.5 C 102.589844 224.765625 102.542969 218.667969 104.621094 217.324219 C 107.398438 215.523438 108.285156 216.097656 110.0625 213.421875 C 112.207031 210.183594 110.15625 211.28125 110.667969 209.785156 C 110.824219 209.335938 110.722656 209.222656 110.554688 209.015625 C 109.886719 208.179688 110.140625 207.710938 109.621094 205.886719 C 108.148438 200.71875 108.671875 200.820312 108.144531 198.222656 C 106.878906 192.03125 104.285156 183.496094 104.683594 182.933594 C 105.28125 182.089844 104.289062 182.171875 103.90625 179.652344 C 103.40625 176.335938 105.132812 177.574219 103.785156 176.195312 C 103.109375 175.5 102.9375 175.320312 102.878906 172.488281 C 102.683594 163.34375 102.40625 168.152344 101.734375 162.457031 C 101.476562 160.265625 102.160156 158.25 101.226562 155.320312 C 100.308594 152.445312 101.140625 152.199219 100.847656 150.375 C 100.652344 149.164062 100.894531 148.402344 100.582031 147.558594 C 100.394531 147.058594 100.226562 145.804688 100.371094 145.054688 C 100.695312 143.371094 100.320312 143.164062 100.421875 142.425781 C 100.535156 141.601562 100.921875 141.476562 100.921875 140.089844 C 100.921875 138.589844 99.894531 139.152344 100.363281 137.613281 C 100.617188 136.769531 100.675781 136.074219 100.605469 134.695312 C 100.109375 125.058594 101.855469 121.160156 100.191406 106.667969 C 100.054688 105.46875 97.132812 104.359375 96.683594 104.019531 C 94.160156 102.113281 90.585938 103.1875 89.304688 95.578125 C 88.746094 92.277344 82.742188 88.847656 83.792969 84.800781 C 86.351562 74.933594 95.628906 67.269531 95.382812 61.421875 C 95.128906 55.277344 97.453125 56.664062 98.429688 54.777344 C 98.882812 53.902344 99.734375 52.945312 99.738281 52.941406 C 99.914062 52.59375 101.195312 49.722656 101.386719 49.394531 C 101.917969 48.472656 102.484375 48.820312 102.484375 49.433594 C 102.484375 50.761719 100.832031 53.125 101.882812 53.953125 C 103 54.839844 103.425781 51.300781 104.207031 50.578125 C 104.539062 50.273438 104.988281 50.367188 104.984375 51.300781 C 104.984375 52.09375 104.378906 53.667969 104.246094 54.308594 C 104.140625 54.832031 104.558594 54.839844 104.835938 55.964844 C 105.066406 56.910156 105.445312 57.121094 105.46875 57.714844 C 105.484375 58.132812 104.746094 60.527344 104.621094 60.78125 C 104.511719 61.003906 103.289062 62.5 102.433594 63.199219 C 98.6875 66.261719 96.910156 73.292969 96.042969 74.769531 C 94.285156 77.765625 94.527344 78.84375 93.210938 83.410156 C 92.691406 85.214844 92.679688 85.476562 93.082031 85.859375 C 93.230469 85.996094 95.3125 87.371094 95.59375 87.515625 C 95.984375 87.714844 96.195312 87.730469 96.945312 87.632812 C 97.519531 87.558594 98.675781 87.726562 99.871094 88.054688 C 101.3125 88.449219 101.203125 88.027344 101.820312 88.027344 C 102.824219 88.027344 103.710938 88.949219 104.433594 89.0625 C 105.269531 89.191406 105.136719 88.710938 106.171875 88.449219 C 106.714844 88.3125 106.871094 88.050781 107.429688 87.867188 C 108.972656 87.359375 109.0625 79.800781 108.769531 79.332031 C 108.15625 78.359375 106.746094 74.625 107.085938 73.023438 C 107.445312 71.332031 108.140625 71.15625 108.734375 69.359375 C 109.796875 66.144531 113.285156 62.476562 117.75 63.257812 C 118.71875 63.429688 119.824219 63.246094 120.929688 63.605469 C 122.554688 64.128906 124.675781 65.910156 124.984375 67.195312 C 125.402344 68.925781 126.4375 69.007812 126.074219 71.347656 C 125.851562 72.757812 126.125 72.933594 125.605469 73.996094 C 125.390625 74.441406 125.296875 74.796875 125.113281 75.410156 C 124.496094 77.457031 123.582031 76.53125 121.785156 80.382812 C 120.210938 83.757812 119.097656 84.675781 119.460938 85.210938 C 119.640625 85.472656 120.632812 85.851562 120.945312 85.851562 C 121.746094 85.851562 121.460938 85.414062 122.886719 85.03125 C 124.460938 84.605469 124.523438 83.382812 128.847656 82.628906 C 129.207031 82.566406 129.410156 82.445312 129.8125 82.242188 C 130.523438 82.277344 130.632812 82.351562 132.832031 81.816406 C 133.324219 81.695312 134.453125 81.628906 134.574219 81.59375 C 134.574219 81.59375 140.296875 79.074219 141.964844 78.507812 C 146.574219 76.953125 144.371094 77.058594 145.957031 71.542969 C 147.851562 64.949219 148.1875 66.804688 149.640625 58.9375 C 151.140625 50.820312 150.472656 55.078125 148.773438 50.066406 C 148.152344 48.234375 148.597656 47.855469 148.347656 46.007812 C 148.03125 43.675781 147.785156 43.773438 147.46875 40.839844 C 147.109375 37.496094 148.234375 37.914062 148.488281 38.472656 C 148.832031 39.234375 149.660156 45.679688 150.640625 43.566406 C 150.84375 43.132812 150.234375 34.097656 152.050781 36.535156 C 152.441406 37.0625 152.238281 43.046875 152.378906 43.601562 C 152.726562 44.949219 152.835938 42.375 153.785156 42.375 C 154.597656 42.375 154.621094 43.511719 154.671875 44.035156 C 154.777344 45.210938 155.382812 44.207031 156.039062 45.128906 C 156.351562 45.566406 157.691406 48.707031 156.632812 52.15625 C 154.589844 58.816406 155.941406 68.445312 152.382812 78.484375 C 150.90625 82.648438 151.609375 80.976562 146.828125 85.160156 C 146.507812 85.4375 141.230469 90.066406 140.976562 90.597656 C 140.21875 92.207031 140.847656 95.125 138.007812 95.742188 C 134.738281 96.449219 131.507812 97.738281 131.285156 101.121094 C 130.441406 113.90625 130.550781 121.601562 134.558594 133.898438 C 135.019531 135.3125 134.664062 134.804688 134.5 136.144531 C 134.339844 137.449219 132.953125 136.925781 134.457031 140.378906 C 136.183594 144.34375 141.808594 165.660156 141.566406 167.472656 C 141.402344 168.707031 141.808594 170.117188 141.945312 170.4375 C 142.449219 171.605469 141.046875 171.667969 141.964844 172.941406 C 142.320312 173.4375 142.386719 173.480469 141.9375 174.714844 C 141.628906 175.558594 142.703125 175.527344 142.082031 176.90625 C 141.6875 177.785156 141.980469 177.363281 141.972656 180.453125 C 141.957031 189.292969 137.289062 206.164062 137.558594 210.847656 C 137.703125 213.355469 138.101562 212.769531 138.714844 216.625 C 138.90625 217.816406 139.078125 219.5 139.128906 219.652344 C 139.675781 221.410156 139.039062 224.300781 134.039062 223.804688 L 782.023438 658.664062 Z M 134.042969 223.804688 "/>
<path style=" stroke:none;fill-rule:nonzero;fill:rgb(0%,0%,0%);fill-opacity:0.701961;" d="M 197.871094 223.804688 C 196.566406 223.382812 195.457031 220.925781 195.308594 219.554688 C 195.253906 219.0625 195.289062 219.105469 195.613281 216.660156 C 195.808594 215.207031 196.335938 215.386719 196.058594 213.320312 C 195.804688 211.429688 196.230469 210.757812 195.476562 207.457031 C 195 205.378906 195.578125 203.492188 195.011719 199.421875 C 191.726562 175.816406 194.414062 174.347656 194.726562 166.457031 C 195.367188 150.105469 196.488281 153.816406 191.914062 152.378906 C 188.4375 151.285156 187.78125 152.335938 189.03125 148.300781 C 195.3125 128.015625 203.203125 108.039062 201.324219 96.5 C 200.914062 93.988281 201.503906 80.929688 198.585938 78.5 C 195.085938 75.59375 191.433594 63.96875 190.121094 59.179688 C 188.90625 54.75 188.136719 56.347656 190.625 49.03125 C 191.183594 47.386719 195.441406 36.609375 195.441406 36.605469 C 195.929688 35.871094 198.207031 34.1875 198.441406 33.867188 C 198.753906 33.441406 199.09375 33.390625 199.460938 33.316406 C 201.222656 32.980469 199.703125 31.003906 201.777344 31.824219 C 202.480469 32.097656 202.570312 31.957031 203.25 30.160156 C 204.078125 27.972656 203.503906 27.726562 204.773438 27.765625 C 207.488281 27.847656 212.859375 31.8125 212.128906 33.003906 C 212.128906 33.003906 211.207031 33.703125 208.71875 37.183594 C 204.199219 43.511719 204.769531 43.375 201.234375 41.425781 C 199.300781 40.363281 199.527344 38.390625 198.179688 43.777344 C 197.269531 47.425781 197.703125 49.613281 196.644531 54.039062 C 195.398438 59.257812 204.890625 71.53125 206.21875 72.160156 C 207.078125 72.570312 206.699219 72.660156 207.988281 74.011719 C 208.828125 74.894531 208.617188 73.78125 209.738281 74.964844 C 210.34375 75.609375 210.5625 75.820312 211.464844 75.382812 C 212.871094 74.695312 212.914062 73.273438 213.320312 71.519531 C 213.527344 70.628906 213.523438 70.613281 213.332031 70.21875 C 212.953125 69.457031 213.777344 69.261719 215.242188 63.964844 C 215.898438 61.582031 219.902344 55.1875 220.265625 54.824219 C 222.117188 52.964844 225.160156 52.300781 227.601562 54.15625 C 229.523438 55.613281 230.160156 54.386719 232.671875 59.15625 C 236.902344 67.1875 227.796875 85.34375 238.257812 76.3125 C 242.550781 72.605469 241.117188 76.085938 238.800781 64.4375 C 236.261719 51.667969 233.695312 51.90625 231.933594 48.675781 C 231.234375 47.390625 227.902344 46.550781 227.582031 46.484375 C 225.621094 46.085938 227.171875 44.902344 229.480469 45.449219 C 232.132812 46.078125 232.796875 46.378906 232.019531 43.941406 C 231.917969 43.621094 229.058594 38.382812 229.515625 37.1875 C 230.234375 35.304688 232.058594 41.90625 233.34375 41.90625 C 233.851562 41.90625 233.839844 41.332031 233.839844 40.820312 C 233.839844 39.039062 231.851562 38.125 233.136719 37.59375 C 233.90625 37.273438 233.183594 33.957031 234.167969 33.957031 C 234.515625 33.957031 234.613281 34.179688 234.660156 35.074219 C 234.886719 39.523438 236.878906 42.066406 237.734375 42.515625 C 239.699219 43.550781 239.640625 44.769531 239.671875 45.664062 C 239.726562 47.183594 239.941406 47.90625 239.769531 49.15625 C 239.25 52.808594 248.292969 67.078125 247.648438 75.441406 C 247.519531 77.140625 247.0625 76.453125 244.921875 80.464844 C 243.914062 82.359375 241.492188 88.003906 234.664062 89.539062 C 233.882812 89.714844 232.664062 91.144531 232.558594 91.464844 C 231.292969 95.28125 232.453125 94.460938 230.886719 98.695312 C 230.296875 100.289062 230.824219 99.976562 229.335938 100.84375 C 227.230469 102.074219 228.691406 99.789062 228.109375 99.375 C 227.972656 99.277344 227.714844 99.671875 227.632812 99.8125 C 226.953125 100.996094 226.816406 100.890625 226.503906 101.34375 C 226.203125 101.78125 225.71875 103.082031 225.375 103.542969 C 224.585938 104.589844 225.574219 105.082031 225.078125 106.785156 C 224.371094 109.203125 224.109375 109.328125 226.832031 116.191406 C 229.304688 122.433594 227.851562 120.503906 229.074219 124.230469 C 229.179688 124.550781 232.347656 133.308594 236.3125 148.890625 C 237.207031 152.398438 238.226562 152.609375 233.769531 153.46875 C 231.226562 153.960938 230.289062 154.824219 229.199219 154.964844 C 228.09375 155.113281 229.003906 155.292969 226.976562 164 C 223.753906 177.828125 231.503906 169.539062 223.046875 198.375 C 222.4375 200.441406 221.59375 202.265625 222.113281 206.582031 C 222.238281 207.613281 221.777344 208.140625 222.488281 211.753906 C 222.746094 213.0625 222.886719 214.183594 223.046875 215.328125 C 223.226562 216.621094 223.628906 216.710938 224.039062 218.316406 C 224.386719 219.671875 224.054688 222.261719 222.828125 222.917969 C 221.578125 223.585938 219.972656 223.269531 218.808594 222.964844 C 214.207031 221.746094 217.558594 216.714844 216.816406 212.285156 C 216.445312 210.082031 216.109375 212.261719 216.109375 207.605469 C 216.515625 206.742188 216.613281 206.59375 216.65625 205.609375 C 216.703125 204.59375 216.695312 205.007812 217.601562 202.3125 C 218.917969 198.398438 216.507812 193.257812 217.210938 186.023438 C 218.214844 175.617188 216.414062 170.769531 216.234375 169.738281 C 215.984375 168.324219 216.078125 166.132812 216.003906 165.621094 C 214.144531 152.941406 215.917969 154.683594 211.589844 154.136719 C 208.867188 153.746094 208.898438 153.691406 208.441406 154.570312 C 205.886719 159.472656 206.636719 165.59375 204.09375 172.070312 C 203.121094 174.554688 204.316406 177.101562 203.476562 185.875 C 202.910156 191.804688 199.984375 200.800781 201.269531 202.515625 C 205.21875 207.777344 201.527344 208.722656 201.695312 212.914062 C 201.757812 214.554688 202.515625 214.191406 202.875 215.1875 C 202.992188 215.507812 204.621094 222.988281 201.109375 223.730469 C 200.703125 223.816406 199.859375 223.867188 198.835938 223.867188 C 198.203125 223.867188 198.039062 223.859375 197.875 223.804688 L 620.941406 422.78125 Z M 197.871094 223.804688 "/>
<path style=" stroke:none;fill-rule:nonzero;fill:rgb(0%,0%,0%);fill-opacity:0.701961;" d="M 197.871094 89.519531 C 198.347656 85.410156 195.738281 81.246094 195.324219 77.085938 C 194.855469 72.414062 196.746094 71.765625 195.023438 70.613281 C 192.773438 69.109375 192.449219 69.894531 192.109375 68.152344 C 191.871094 66.917969 191.640625 66.132812 191.824219 65.074219 C 193.207031 56.9375 193.136719 59.46875 187.824219 56.949219 C 186.386719 56.265625 186.453125 56.714844 185.613281 56.863281 C 184.335938 57.105469 184.75 57.773438 183.882812 57.96875 C 183.035156 58.160156 183.277344 58.835938 183.425781 59.433594 C 183.957031 61.601562 183.265625 61.015625 183.824219 63.027344 C 184.640625 65.980469 186.222656 64.148438 187.179688 69.269531 C 187.503906 71.003906 186.886719 69.796875 187.242188 73.148438 C 187.4375 74.976562 188.488281 85.121094 187.28125 85.769531 C 186.625 86.121094 184.308594 84.503906 184.035156 84.148438 C 183.445312 83.375 182.929688 79.820312 180.703125 79.222656 C 179.667969 78.945312 173.457031 80.738281 172.011719 82.058594 C 170.601562 83.347656 166.851562 81.167969 166.183594 81.167969 C 165.695312 81.167969 165.078125 81.582031 164.675781 81.371094 C 164.035156 81.035156 162.976562 78.488281 162.914062 78.167969 C 162.828125 77.742188 163.800781 75.894531 161.554688 72.984375 C 160.421875 71.511719 158.207031 67.617188 154.820312 67.617188 C 154.15625 67.605469 154.425781 67.886719 153.382812 67.957031 C 151.898438 68.054688 152.09375 67.921875 151.230469 68.152344 C 149.667969 68.570312 149.683594 69.042969 148.828125 68.90625 C 147.519531 68.695312 146.714844 69.980469 146.605469 70.40625 C 146.324219 71.511719 145.449219 71.613281 145.449219 72.285156 C 145.449219 72.425781 145.308594 72.5625 145.132812 72.59375 C 144.488281 72.695312 144.628906 74 144.25 74.949219 C 143.890625 75.84375 144.726562 80.144531 146.21875 81.972656 C 146.636719 82.488281 147.703125 82.777344 148.316406 83.390625 C 150.902344 85.980469 149.882812 85.804688 153.597656 88.867188 C 157.582031 92.152344 156.273438 90.414062 148.3125 96.773438 C 144.683594 99.675781 145.621094 106.832031 145.488281 108.003906 C 145.441406 108.398438 145.332031 108.660156 144.917969 109.339844 C 142.800781 112.804688 142.074219 112.835938 141.027344 111.324219 C 138.945312 108.320312 137.582031 106.441406 136.179688 103.429688 C 134.394531 99.597656 133.476562 100.933594 134.082031 97.527344 C 135.195312 91.25 134.503906 95.054688 134.433594 91.574219 C 134.402344 90.0625 134.890625 87.972656 133.675781 89.320312 C 132.652344 90.457031 133.238281 91.65625 132.117188 91.175781 C 130.210938 90.355469 130.671875 91.765625 129.761719 91.875 C 128.9375 91.976562 128.929688 92.148438 128.785156 92.730469 C 128.578125 93.582031 128.21875 93.300781 127.796875 93.949219 C 126.96875 95.21875 126.292969 94.757812 126.359375 96.367188 C 126.453125 98.5 128.457031 99.960938 129.046875 100.839844 C 129.257812 101.160156 130.304688 102.894531 130.070312 103.453125 C 130.019531 103.574219 127.183594 107.359375 126.988281 107.792969 C 126.703125 108.421875 126.871094 107.964844 131.308594 113.492188 C 140.1875 124.554688 139.746094 126.019531 143.011719 124.726562 C 146.5625 123.324219 146.6875 120.695312 144.664062 132.179688 C 144.042969 135.699219 141.851562 151.023438 143.796875 153.914062 C 143.78125 155.402344 138.773438 171.382812 139.769531 173.648438 C 140.257812 174.761719 140.425781 176.777344 141.0625 177.605469 C 141.570312 178.261719 141.515625 179.667969 141.988281 179.984375 C 143.710938 181.136719 141.433594 178.464844 145.511719 191.46875 C 148.085938 199.679688 146.726562 197.519531 147.886719 199.894531 C 147.886719 201.496094 147.488281 202.972656 148.246094 205.332031 C 148.777344 206.984375 147.949219 206.625 147.878906 208.109375 C 147.800781 209.816406 151.253906 209.226562 144.03125 213.578125 C 142.738281 214.359375 142.484375 214.949219 140.957031 215.554688 C 139.25 216.230469 137.660156 216.59375 136.722656 217.394531 C 135.371094 218.550781 135.972656 222.070312 142.457031 220.402344 C 146.03125 219.484375 158.910156 220.476562 157.667969 213.921875 C 157.558594 213.351562 156.828125 211.113281 156.800781 210.953125 C 156.625 209.871094 157.59375 209.894531 157.535156 208.34375 C 157.5 207.378906 157.121094 206.796875 157.121094 206.039062 C 157.117188 205.15625 157.605469 203.519531 157.53125 202.015625 C 157.457031 200.527344 156.324219 194.042969 156.320312 192.839844 C 156.308594 185.960938 156.382812 185.082031 153.410156 178.300781 L 153.386719 177.800781 C 153.324219 176.535156 152.832031 176.296875 152.832031 175.464844 C 152.832031 174.210938 153.953125 174.054688 154.007812 171.972656 C 154.035156 170.789062 153.949219 170.742188 154.742188 169.867188 C 160.257812 163.785156 160.636719 158.90625 161.789062 162.480469 C 162.261719 163.9375 162.050781 171.414062 162.78125 174.96875 C 163.089844 176.476562 164.964844 181.234375 164.9375 182.648438 C 164.925781 183.265625 164.855469 183.210938 165.574219 184.339844 C 165.90625 184.859375 166.703125 186.191406 166.746094 186.25 C 167.734375 187.648438 167.832031 185.792969 169.164062 191.109375 C 169.976562 194.355469 172.773438 200.632812 172.890625 200.953125 C 173.5 202.582031 173.671875 204.988281 174.433594 206.792969 C 175.558594 209.4375 174.183594 210.523438 175.636719 213.4375 C 175.585938 218.363281 174.027344 217.332031 169.90625 220.789062 C 168.3125 222.128906 168.230469 221.800781 167.035156 222.605469 C 166.453125 222.996094 166.117188 225.367188 169.144531 225.835938 L 169.140625 225.835938 C 169.691406 225.917969 170.109375 225.90625 171.121094 225.769531 C 181.824219 224.324219 175.804688 226.242188 184.472656 221.738281 C 187.515625 220.15625 182.808594 216.417969 184.53125 212.613281 C 186.078125 209.175781 183.824219 204.757812 183.234375 202.691406 C 182.375 199.667969 182.414062 188.5 177.519531 181.878906 C 176.527344 180.539062 177.292969 180.859375 176.488281 179.441406 C 176.050781 178.664062 176.070312 178.792969 176.089844 177.144531 C 176.101562 176.367188 176.121094 175.644531 176.140625 175.535156 C 176.332031 174.296875 175.242188 174.804688 175.4375 173.34375 C 175.484375 172.996094 176.886719 167.085938 177.058594 165.203125 C 177.199219 163.617188 177.425781 160.789062 178.546875 159.695312 C 179.265625 158.992188 179.265625 158.378906 179.082031 157.660156 C 178.859375 156.789062 178.972656 156.820312 179.460938 155.0625 C 180.011719 153.058594 180.578125 154.253906 180.84375 151.066406 C 181.074219 148.308594 182.300781 149.289062 182.035156 146.449219 C 181.949219 145.550781 183.039062 145.511719 183.636719 144.3125 C 184.589844 142.40625 190.507812 140.339844 192.550781 139.230469 C 195.609375 137.570312 194.980469 140.417969 184.960938 114.203125 C 182.933594 108.898438 180.851562 105.710938 184.164062 99.398438 C 185.445312 96.957031 185.035156 99.359375 192.550781 97.1875 C 195.203125 96.421875 195.1875 96.992188 196.183594 96.132812 C 197.65625 94.863281 197.554688 96.621094 198.050781 93.054688 Z M 197.871094 89.519531 "/>
<path style=" stroke:none;fill-rule:nonzero;fill:rgb(0%,0%,0%);fill-opacity:0.701961;" d="M 277.660156 223.804688 C 276.101562 223.683594 275.042969 223.640625 274.230469 222.558594 C 272.121094 219.753906 276.925781 217.546875 276.488281 212.136719 C 276.367188 210.660156 275.773438 210.613281 275.476562 209.230469 C 273.476562 200 275.820312 202.992188 274.601562 198.769531 C 274.160156 197.242188 274.597656 197.574219 273.796875 195.191406 C 272.011719 189.867188 272.230469 185.117188 271.949219 184.0625 C 271.847656 183.691406 271.464844 183.085938 271.542969 182.398438 C 271.597656 181.945312 271.621094 181.375 271.425781 180.945312 C 271.011719 180.042969 271.265625 179.738281 270.707031 178.976562 C 270.015625 178.035156 270.113281 177.457031 269.640625 176.175781 C 267.257812 169.757812 269.523438 164.457031 266.472656 154.828125 C 263.902344 146.707031 263.828125 155.257812 260.4375 160.960938 C 259.199219 163.046875 260.207031 163.296875 259.054688 165.75 C 258.21875 167.53125 258.363281 167.375 258.378906 169.09375 C 257.136719 170.902344 257.953125 170.734375 257.566406 172.007812 C 257.136719 173.429688 256.652344 173.246094 256.90625 174.246094 C 257.066406 174.875 256.617188 176.855469 256.777344 178.085938 C 258.160156 188.835938 255.082031 194.753906 255.441406 201.925781 C 255.617188 205.445312 254.640625 204.875 255.152344 206.464844 C 255.496094 207.527344 255.65625 208.738281 255.109375 209.730469 C 253.71875 212.246094 255.449219 213.96875 253.507812 215.257812 C 251.972656 216.277344 250.972656 215.933594 247.671875 217.464844 C 245.257812 218.582031 244.007812 218.761719 243.222656 219.03125 C 241.609375 219.585938 240.113281 218.917969 239.683594 218.777344 C 238.839844 218.507812 238.058594 218.265625 238.378906 217.089844 C 238.96875 214.929688 238.6875 215.121094 241.710938 213.515625 C 244.8125 211.867188 248.121094 208 247.125 206.757812 C 246.625 206.136719 247.511719 206.019531 246.867188 204.589844 C 246.421875 203.597656 246.71875 203.476562 246.800781 202.117188 C 246.949219 199.644531 246.035156 198.324219 246.601562 194.886719 C 246.914062 193.007812 245.015625 181.609375 245.46875 178.6875 C 245.703125 177.152344 244.847656 177.449219 245.3125 176.675781 C 245.707031 176.019531 245.25 175.816406 245.074219 174.992188 C 244.898438 174.160156 245.300781 170.5625 245.03125 169.761719 C 244.421875 167.945312 245.484375 165.253906 245.113281 163.316406 C 245.113281 163.316406 245.175781 156.035156 245.179688 155.972656 C 245.226562 153.363281 245.699219 152.035156 245.71875 148.914062 C 245.734375 145.539062 247.269531 141.40625 247.332031 141.0625 C 247.390625 140.742188 248.417969 135.269531 248.871094 134.613281 C 251.039062 131.4375 254.101562 120.8125 254.234375 117.222656 C 255.25 89.378906 257.476562 94.96875 251.246094 90.273438 C 249.359375 88.84375 248.011719 88.734375 247.59375 87.910156 C 246.855469 86.453125 247.59375 83.976562 246.261719 82.5 C 242.726562 78.578125 236.835938 68.230469 236.601562 67.910156 C 235.839844 66.882812 235.890625 66.558594 236.054688 65.105469 C 237.339844 53.609375 236.207031 57.273438 241.296875 43.191406 C 243.5 37.097656 242.175781 31.964844 247.066406 32.035156 C 248.328125 32.050781 248.304688 31.316406 249.433594 31.832031 C 250.398438 32.273438 252.042969 31.207031 252.089844 34.292969 C 252.113281 35.933594 252.136719 35.878906 250.949219 37.109375 C 249.847656 38.253906 249.808594 38.28125 249.160156 38.527344 C 247.085938 39.304688 246.871094 42.898438 246.351562 44.71875 C 243.613281 54.289062 245.023438 56.328125 244.578125 60.515625 C 244 65.929688 244.125 65.785156 246.476562 67.734375 C 249.117188 69.921875 249.917969 72.066406 252.0625 73.414062 C 253.058594 74.039062 253.128906 74.378906 253.714844 74.664062 C 254.492188 75.039062 255.90625 75.285156 257.011719 76.160156 C 257.859375 76.832031 258.417969 76.511719 258.816406 76.695312 C 259.332031 76.929688 262.738281 80.121094 264.761719 79.066406 C 265.511719 78.683594 265 77.25 264.699219 76.929688 C 264.535156 76.757812 264.410156 76.726562 263.699219 76.691406 C 260.40625 76.523438 261.523438 75.628906 260.191406 72.722656 C 257.6875 67.246094 259.179688 68.511719 259.179688 66.617188 C 259.179688 65.753906 258.382812 64.941406 258.484375 64.28125 C 258.496094 64.207031 259.128906 61.917969 259.210938 61.320312 C 259.355469 60.269531 259.003906 60.175781 259.230469 59.5 C 259.601562 58.386719 260.457031 57.570312 260.6875 56.667969 C 260.890625 55.882812 262.160156 54.679688 262.863281 54.449219 C 266.753906 53.160156 268.070312 54.070312 269.28125 54.3125 C 272.324219 54.921875 274.015625 56.523438 274.757812 56.917969 C 275.808594 57.476562 274.972656 57.8125 275.910156 58.523438 C 276.792969 59.199219 277.070312 59.878906 277.070312 62.785156 C 277.070312 64.394531 278.144531 67.636719 276.558594 70.730469 C 275.390625 73.003906 275.273438 72.277344 275.277344 73.523438 C 275.277344 74.84375 275.765625 76.097656 276.242188 76.308594 C 276.707031 76.515625 278.5625 75.570312 279.117188 75.195312 C 280.5625 74.214844 280.152344 73.789062 281.125 73.253906 C 282 72.777344 282.253906 71.886719 283.332031 71.066406 C 285.089844 69.726562 286.734375 63.738281 289.257812 60.355469 C 292.6875 55.761719 290.066406 52.335938 291.167969 42.890625 C 291.242188 42.261719 291.449219 35.171875 290.90625 30.828125 C 290.582031 28.226562 290.574219 28.996094 287.894531 25.753906 C 286.21875 23.722656 287.171875 23.96875 286.617188 21.65625 C 286.511719 21.199219 286.511719 20.800781 286.914062 20.355469 C 287.683594 19.496094 288.113281 20.507812 288.953125 19.949219 C 289.949219 19.285156 289.796875 20.3125 293.609375 20.601562 C 294.785156 20.6875 295.554688 21.980469 295.859375 22.882812 C 296.617188 25.152344 295.644531 26.6875 296.296875 32.023438 C 296.554688 34.113281 297.703125 39.472656 297.972656 42.605469 C 299.46875 60.019531 297.835938 55.914062 296.230469 64.421875 C 295.8125 66.636719 294.144531 74.59375 294.144531 74.59375 C 293.789062 77.695312 293.71875 77.988281 292.878906 78.882812 C 291.746094 80.089844 291.703125 81 290.71875 82.765625 C 289.761719 84.480469 289.988281 84.601562 289.035156 88.347656 C 287.957031 92.597656 288.613281 91.90625 288.28125 94.871094 C 287.765625 99.457031 287.332031 97.304688 286.820312 104.082031 C 286.078125 113.898438 288.628906 121.410156 289.867188 127.550781 C 291.253906 134.445312 292.273438 132.632812 288.296875 133.691406 C 281.160156 133.851562 286.242188 133.480469 284.636719 145.796875 C 284.1875 149.214844 284.027344 149.664062 284.175781 150.304688 C 284.710938 152.632812 283.902344 153.722656 283.582031 154.171875 C 282.933594 155.074219 283.003906 154.808594 282.730469 156.816406 C 281.785156 163.757812 280.734375 164.28125 281.628906 167.679688 C 282.25 170.035156 281.398438 175.070312 281.949219 176.402344 C 282.300781 177.246094 282.28125 177.171875 282.269531 177.621094 C 282.222656 179.566406 284 182.402344 284.398438 188.753906 C 284.425781 189.167969 284.480469 195.449219 284.421875 197.917969 C 285.261719 201.261719 284.984375 204.488281 284.855469 205.074219 C 284.742188 205.597656 284.738281 206.105469 284.925781 206.648438 C 285.417969 208.097656 285 208.132812 284.578125 210.855469 C 284.089844 213.992188 283.351562 212.414062 284.046875 215.03125 C 284.816406 217.9375 286.859375 221.703125 280.675781 223.5 C 279.625 223.808594 278.792969 223.890625 277.660156 223.804688 L 297.980469 658.484375 Z M 277.660156 223.804688 "/>
</g>
</svg>
